<svg width="191" height="41" viewBox="0 0 191 41" fill="none" xmlns="http://www.w3.org/2000/svg">
<path d="M58.544 10.28H63.024L71.376 33H66.832L64.72 27.336H56.784L54.704 33H50.16L58.544 10.28ZM63.92 24.232L60.784 14.856L57.52 24.232H63.92ZM89.036 33H84.748V23.592C84.748 22.248 84.5133 21.2667 84.044 20.648C83.5747 20.0293 82.924 19.72 82.092 19.72C81.516 19.72 80.9293 19.8693 80.332 20.168C79.756 20.4667 79.2333 20.8827 78.764 21.416C78.2947 21.928 77.9533 22.5253 77.74 23.208V33H73.452V16.232H77.324V19.336C77.7507 18.6107 78.2947 18.0027 78.956 17.512C79.6173 17 80.3747 16.616 81.228 16.36C82.1027 16.0827 83.02 15.944 83.98 15.944C85.0253 15.944 85.8787 16.136 86.54 16.52C87.2227 16.8827 87.7347 17.384 88.076 18.024C88.4387 18.6427 88.684 19.3467 88.812 20.136C88.9613 20.9253 89.036 21.7253 89.036 22.536V33ZM91.6125 28.04C91.6125 26.952 91.9112 26.0027 92.5085 25.192C93.1272 24.36 93.9805 23.72 95.0685 23.272C96.1565 22.824 97.4045 22.6 98.8125 22.6C99.5165 22.6 100.231 22.6533 100.957 22.76C101.682 22.8667 102.311 23.0373 102.845 23.272V22.376C102.845 21.3093 102.525 20.488 101.885 19.912C101.266 19.336 100.338 19.048 99.1005 19.048C98.1832 19.048 97.3085 19.208 96.4765 19.528C95.6445 19.848 94.7698 20.3173 93.8525 20.936L92.4765 18.12C93.5858 17.3947 94.7165 16.8507 95.8685 16.488C97.0418 16.1253 98.2685 15.944 99.5485 15.944C101.938 15.944 103.794 16.5413 105.117 17.736C106.461 18.9307 107.133 20.6373 107.133 22.856V28.2C107.133 28.648 107.207 28.968 107.357 29.16C107.527 29.352 107.794 29.4693 108.157 29.512V33C107.773 33.064 107.421 33.1173 107.101 33.16C106.802 33.2027 106.546 33.224 106.333 33.224C105.479 33.224 104.829 33.032 104.381 32.648C103.954 32.264 103.687 31.7947 103.581 31.24L103.485 30.376C102.759 31.3147 101.853 32.04 100.765 32.552C99.6765 33.064 98.5672 33.32 97.4365 33.32C96.3272 33.32 95.3245 33.096 94.4285 32.648C93.5538 32.1787 92.8605 31.5493 92.3485 30.76C91.8578 29.9493 91.6125 29.0427 91.6125 28.04ZM102.045 28.904C102.279 28.648 102.471 28.392 102.621 28.136C102.77 27.88 102.845 27.6453 102.845 27.432V25.736C102.333 25.5227 101.778 25.3627 101.181 25.256C100.583 25.128 100.018 25.064 99.4845 25.064C98.3752 25.064 97.4578 25.3093 96.7325 25.8C96.0285 26.2693 95.6765 26.8987 95.6765 27.688C95.6765 28.1147 95.7938 28.52 96.0285 28.904C96.2632 29.288 96.6045 29.5973 97.0525 29.832C97.5005 30.0667 98.0338 30.184 98.6525 30.184C99.2925 30.184 99.9218 30.0667 100.541 29.832C101.159 29.576 101.661 29.2667 102.045 28.904ZM111.108 9.64H115.396V27.624C115.396 28.392 115.524 28.9147 115.78 29.192C116.036 29.448 116.388 29.576 116.836 29.576C117.177 29.576 117.529 29.5333 117.892 29.448C118.254 29.3627 118.574 29.256 118.852 29.128L119.428 32.392C118.852 32.6693 118.18 32.8827 117.411 33.032C116.644 33.1813 115.95 33.256 115.332 33.256C113.988 33.256 112.942 32.904 112.196 32.2C111.47 31.4747 111.108 30.4507 111.108 29.128V9.64ZM120.835 36.264C121.219 36.3493 121.571 36.424 121.891 36.488C122.233 36.552 122.521 36.584 122.755 36.584C123.161 36.584 123.491 36.4773 123.747 36.264C124.025 36.072 124.291 35.7093 124.547 35.176C124.803 34.664 125.07 33.9387 125.347 33L118.723 16.232H123.171L127.683 28.616L131.651 16.232H135.747L128.707 36.328C128.451 37.0747 128.057 37.7467 127.523 38.344C127.011 38.9627 126.361 39.4427 125.571 39.784C124.803 40.1467 123.939 40.328 122.979 40.328C122.638 40.328 122.297 40.296 121.955 40.232C121.614 40.1893 121.241 40.104 120.835 39.976V36.264ZM148.125 32.136C147.762 32.2853 147.325 32.456 146.813 32.648C146.301 32.84 145.746 32.9893 145.149 33.096C144.573 33.224 143.986 33.288 143.389 33.288C142.6 33.288 141.874 33.1493 141.213 32.872C140.552 32.5947 140.018 32.1573 139.613 31.56C139.229 30.9413 139.037 30.1413 139.037 29.16V19.528H136.829V16.232H139.037V10.792H143.325V16.232H146.845V19.528H143.325V27.72C143.346 28.296 143.506 28.712 143.805 28.968C144.104 29.224 144.477 29.352 144.925 29.352C145.373 29.352 145.81 29.2773 146.237 29.128C146.664 28.9787 147.005 28.8507 147.261 28.744L148.125 32.136ZM150.358 33V16.232H154.646V33H150.358ZM150.358 13.896V9.64H154.646V13.896H150.358ZM166.323 33.32C164.957 33.32 163.731 33.096 162.643 32.648C161.555 32.1787 160.627 31.5387 159.859 30.728C159.091 29.896 158.493 28.9573 158.067 27.912C157.661 26.8667 157.459 25.768 157.459 24.616C157.459 23.0373 157.811 21.5973 158.515 20.296C159.24 18.9733 160.264 17.9173 161.587 17.128C162.909 16.3387 164.477 15.944 166.291 15.944C168.104 15.944 169.661 16.3387 170.963 17.128C172.264 17.9173 173.235 18.952 173.875 20.232L169.683 21.512C169.32 20.8933 168.84 20.424 168.243 20.104C167.645 19.7627 166.984 19.592 166.259 19.592C165.448 19.592 164.701 19.8053 164.019 20.232C163.357 20.6373 162.835 21.224 162.451 21.992C162.067 22.7387 161.875 23.6133 161.875 24.616C161.875 25.5973 162.067 26.472 162.451 27.24C162.856 27.9867 163.389 28.584 164.051 29.032C164.712 29.4587 165.448 29.672 166.259 29.672C166.771 29.672 167.251 29.5867 167.699 29.416C168.168 29.2453 168.584 29.0107 168.947 28.712C169.309 28.4133 169.576 28.072 169.747 27.688L173.939 28.968C173.555 29.8 172.989 30.5467 172.243 31.208C171.517 31.8693 170.653 32.392 169.651 32.776C168.669 33.1387 167.56 33.32 166.323 33.32ZM182.753 33.32C181.324 33.32 179.958 33.0853 178.657 32.616C177.356 32.1467 176.236 31.4533 175.297 30.536L176.833 27.752C177.836 28.5627 178.817 29.16 179.777 29.544C180.758 29.928 181.697 30.12 182.593 30.12C183.425 30.12 184.086 29.9707 184.577 29.672C185.089 29.3733 185.345 28.9253 185.345 28.328C185.345 27.9227 185.206 27.6133 184.929 27.4C184.652 27.1653 184.246 26.9627 183.713 26.792C183.201 26.6213 182.572 26.4293 181.825 26.216C180.588 25.8107 179.553 25.416 178.721 25.032C177.889 24.648 177.26 24.168 176.833 23.592C176.428 22.9947 176.225 22.2373 176.225 21.32C176.225 20.2107 176.502 19.2613 177.057 18.472C177.633 17.6613 178.422 17.032 179.425 16.584C180.449 16.136 181.644 15.912 183.009 15.912C184.204 15.912 185.334 16.104 186.401 16.488C187.468 16.8507 188.438 17.448 189.313 18.28L187.585 21C186.732 20.3387 185.921 19.8587 185.153 19.56C184.385 19.24 183.606 19.08 182.817 19.08C182.369 19.08 181.942 19.1333 181.537 19.24C181.153 19.3467 180.833 19.528 180.577 19.784C180.342 20.0187 180.225 20.36 180.225 20.808C180.225 21.2133 180.332 21.5333 180.545 21.768C180.78 21.9813 181.121 22.1733 181.569 22.344C182.038 22.5147 182.604 22.7067 183.265 22.92C184.609 23.304 185.74 23.6987 186.657 24.104C187.596 24.5093 188.3 25.0107 188.769 25.608C189.238 26.184 189.473 26.984 189.473 28.008C189.473 29.672 188.865 30.9733 187.649 31.912C186.433 32.8507 184.801 33.32 182.753 33.32Z" fill="#00359B"/>
<path d="M34.5938 30.1094H38.4375V39.0781H34.5938V30.1094Z" fill="#CFCFD9"/>
<path d="M28.1875 26.2656H32.0312V39.0781H28.1875V26.2656Z" fill="#CFCFD9"/>
<path d="M21.7812 22.4219H25.625V39.0781H21.7812V22.4219Z" fill="#CFCFD9"/>
<path d="M15.375 19.8594H19.2188V39.0781H15.375V19.8594Z" fill="#CFCFD9"/>
<path d="M8.96875 16.6562H12.8125V39.0781H8.96875V16.6562Z" fill="#CFCFD9"/>
<path d="M2.5625 12.1719H6.40625V39.0781H2.5625V12.1719Z" fill="#CFCFD9"/>
<path d="M3.84375 12.1719H6.40625V37.7969H3.84375V12.1719Z" fill="#D9DAE2"/>
<path d="M10.25 16.6562H12.8125V37.7969H10.25V16.6562Z" fill="#D9DAE2"/>
<path d="M16.6562 19.8594H19.2188V37.7969H16.6562V19.8594Z" fill="#D9DAE2"/>
<path d="M23.0625 22.4219H25.625V37.7969H23.0625V22.4219Z" fill="#D9DAE2"/>
<path d="M29.4688 26.2656H32.0312V37.7969H29.4688V26.2656Z" fill="#D9DAE2"/>
<path d="M35.875 30.1094H38.4375V37.7969H35.875V30.1094Z" fill="#D9DAE2"/>
<path d="M7.04685 1.92188L6.20507 3.62786L4.32227 3.90141L5.68424 5.22942L5.36264 7.10453L7.04685 6.21919L8.73105 7.10453L8.40945 5.22942L9.77142 3.90141L7.88863 3.62786L7.04685 1.92188Z" fill="#94C7F2"/>
<path d="M16.6562 7.04688L14.7344 8.96875L19.2188 13.4531H27.5469L37.1562 23.0625L35.2344 24.9844L26.2656 16.0156H17.9375L12.8125 10.8906L10.8906 12.8125V7.04688H16.6562Z" fill="#0468AD"/>
<path d="M14.7344 8.96875L19.2188 13.4531H27.5469L37.1562 23.0625L35.2344 24.9844L26.2656 16.0156H17.9375L14.7344 12.8125C14.4819 12.5601 14.2817 12.2605 14.1451 11.9308C14.0085 11.601 13.9381 11.2476 13.9381 10.8906C13.9381 10.5337 14.0085 10.1802 14.1451 9.85048C14.2817 9.52072 14.4819 9.22111 14.7344 8.96875Z" fill="#027DE5"/>
<path d="M37.7969 33.3125V30.75H35.2344L37.7969 33.3125Z" fill="white"/>
<path d="M31.3906 29.4688V26.9062H28.8281L31.3906 29.4688Z" fill="white"/>
<path d="M24.9844 25.625V23.0625H22.4219L24.9844 25.625Z" fill="white"/>
<path d="M18.5781 23.0625V20.5H16.0156L18.5781 23.0625Z" fill="white"/>
<path d="M12.1719 19.8594V17.2969H9.60938L12.1719 19.8594Z" fill="white"/>
<path d="M5.76562 15.375V12.8125H3.20312L5.76562 15.375Z" fill="white"/>
<path d="M34.5938 39.7188H38.4375C38.6074 39.7188 38.7703 39.6513 38.8905 39.5311C39.0106 39.411 39.0781 39.248 39.0781 39.0781V30.1094C39.0781 29.9395 39.0106 29.7765 38.8905 29.6564C38.7703 29.5362 38.6074 29.4688 38.4375 29.4688H34.5938C34.4238 29.4688 34.2609 29.5362 34.1408 29.6564C34.0206 29.7765 33.9531 29.9395 33.9531 30.1094V39.0781C33.9531 39.248 34.0206 39.411 34.1408 39.5311C34.2609 39.6513 34.4238 39.7188 34.5938 39.7188ZM37.7969 38.4375H35.2344V30.75H37.7969V38.4375Z" fill="black"/>
<path d="M28.1875 39.7188H32.0312C32.2012 39.7188 32.3641 39.6513 32.4842 39.5311C32.6044 39.411 32.6719 39.248 32.6719 39.0781V26.2656C32.6719 26.0957 32.6044 25.9328 32.4842 25.8126C32.3641 25.6925 32.2012 25.625 32.0312 25.625H28.1875C28.0176 25.625 27.8546 25.6925 27.7345 25.8126C27.6144 25.9328 27.5469 26.0957 27.5469 26.2656V39.0781C27.5469 39.248 27.6144 39.411 27.7345 39.5311C27.8546 39.6513 28.0176 39.7188 28.1875 39.7188ZM31.3906 38.4375H28.8281V26.9062H31.3906V38.4375Z" fill="black"/>
<path d="M21.7812 39.7188H25.625C25.7949 39.7188 25.9579 39.6513 26.078 39.5311C26.1981 39.411 26.2656 39.248 26.2656 39.0781V22.4219C26.2656 22.252 26.1981 22.089 26.078 21.9689C25.9579 21.8487 25.7949 21.7812 25.625 21.7812H21.7812C21.6113 21.7812 21.4484 21.8487 21.3283 21.9689C21.2081 22.089 21.1406 22.252 21.1406 22.4219V39.0781C21.1406 39.248 21.2081 39.411 21.3283 39.5311C21.4484 39.6513 21.6113 39.7188 21.7812 39.7188ZM24.9844 38.4375H22.4219V23.0625H24.9844V38.4375Z" fill="black"/>
<path d="M15.375 39.7188H19.2188C19.3887 39.7188 19.5516 39.6513 19.6717 39.5311C19.7919 39.411 19.8594 39.248 19.8594 39.0781V19.8594C19.8594 19.6895 19.7919 19.5265 19.6717 19.4064C19.5516 19.2862 19.3887 19.2188 19.2188 19.2188H15.375C15.2051 19.2188 15.0421 19.2862 14.922 19.4064C14.8019 19.5265 14.7344 19.6895 14.7344 19.8594V39.0781C14.7344 39.248 14.8019 39.411 14.922 39.5311C15.0421 39.6513 15.2051 39.7188 15.375 39.7188ZM18.5781 38.4375H16.0156V20.5H18.5781V38.4375Z" fill="black"/>
<path d="M8.96875 39.7188H12.8125C12.9824 39.7188 13.1454 39.6513 13.2655 39.5311C13.3856 39.411 13.4531 39.248 13.4531 39.0781V16.6562C13.4531 16.4863 13.3856 16.3234 13.2655 16.2033C13.1454 16.0831 12.9824 16.0156 12.8125 16.0156H8.96875C8.79885 16.0156 8.6359 16.0831 8.51576 16.2033C8.39562 16.3234 8.32812 16.4863 8.32812 16.6562V39.0781C8.32812 39.248 8.39562 39.411 8.51576 39.5311C8.6359 39.6513 8.79885 39.7188 8.96875 39.7188ZM12.1719 38.4375H9.60938V17.2969H12.1719V38.4375Z" fill="black"/>
<path d="M2.5625 39.7188H6.40625C6.57615 39.7188 6.7391 39.6513 6.85924 39.5311C6.97938 39.411 7.04688 39.248 7.04688 39.0781V12.1719C7.04688 12.002 6.97938 11.839 6.85924 11.7189C6.7391 11.5987 6.57615 11.5312 6.40625 11.5312H2.5625C2.3926 11.5312 2.22965 11.5987 2.10951 11.7189C1.98937 11.839 1.92188 12.002 1.92188 12.1719V39.0781C1.92188 39.248 1.98937 39.411 2.10951 39.5311C2.22965 39.6513 2.3926 39.7188 2.5625 39.7188ZM5.76562 38.4375H3.20312V12.8125H5.76562V38.4375Z" fill="black"/>
<path d="M5.3627 7.74516C5.46662 7.74502 5.56899 7.71998 5.66123 7.67213L7.0469 6.9431L8.43257 7.67213C8.53842 7.72781 8.65775 7.75275 8.77704 7.74412C8.89633 7.73549 9.01082 7.69364 9.10755 7.6233C9.20429 7.55297 9.2794 7.45696 9.32439 7.34615C9.36938 7.23533 9.38245 7.11413 9.36212 6.99627L9.0969 5.453L10.218 4.3601C10.3036 4.27684 10.3642 4.17132 10.3931 4.05544C10.4219 3.93955 10.4177 3.81792 10.3811 3.70427C10.3444 3.59062 10.2768 3.48947 10.1857 3.41224C10.0946 3.33501 9.98377 3.28477 9.86565 3.26719L8.31726 3.04169L7.62347 1.63872C7.5646 1.53883 7.48069 1.45603 7.38002 1.39851C7.27935 1.34098 7.16541 1.31072 7.04947 1.31072C6.93352 1.31072 6.81958 1.34098 6.71891 1.39851C6.61824 1.45603 6.53433 1.53883 6.47547 1.63872L5.78167 3.04233L4.22815 3.26719C4.10991 3.28436 3.99882 3.33427 3.90745 3.41126C3.81607 3.48825 3.74805 3.58926 3.71107 3.70287C3.67408 3.81649 3.66961 3.93819 3.69816 4.05421C3.7267 4.17024 3.78713 4.27597 3.87261 4.35946L4.9969 5.453L4.73233 6.99627C4.71657 7.08819 4.72106 7.18244 4.7455 7.27243C4.76994 7.36243 4.81374 7.44601 4.87383 7.51733C4.93393 7.58864 5.00886 7.64598 5.09341 7.68533C5.17796 7.72468 5.27008 7.7451 5.36334 7.74516H5.3627ZM7.0469 5.57857C6.94289 5.57852 6.84043 5.60381 6.74837 5.65224L6.21345 5.93347L6.31531 5.33769C6.3329 5.23536 6.32536 5.13029 6.29333 5.03153C6.2613 4.93277 6.20575 4.84327 6.13145 4.77074L5.69903 4.34921L6.29673 4.26208C6.39958 4.24709 6.49725 4.20729 6.58129 4.14613C6.66533 4.08497 6.73323 4.00428 6.77912 3.91102L7.0469 3.36905L7.31468 3.91102C7.36058 4.00428 7.42848 4.08497 7.51252 4.14613C7.59656 4.20729 7.69422 4.24709 7.79708 4.26208L8.39478 4.34921L7.96236 4.77074C7.88806 4.84327 7.83251 4.93277 7.80048 5.03153C7.76845 5.13029 7.7609 5.23536 7.7785 5.33769L7.88036 5.93347L7.34543 5.65224C7.25338 5.60381 7.15092 5.57852 7.0469 5.57857Z" fill="black"/>
</svg>
